<?xml version="1.0" encoding="UTF-8" standalone="no"?>
<!-- Created with Inkscape (http://www.inkscape.org/) -->

<svg
   width="210mm"
   height="297mm"
   viewBox="0 0 210 297"
   version="1.1"
   id="svg5"
   inkscape:version="1.1.2 (08b2f3d93c, 2022-04-05)"
   sodipodi:docname="apprenticeship.svg"
   xmlns:inkscape="http://www.inkscape.org/namespaces/inkscape"
   xmlns:sodipodi="http://sodipodi.sourceforge.net/DTD/sodipodi-0.dtd"
   xmlns="http://www.w3.org/2000/svg"
   xmlns:svg="http://www.w3.org/2000/svg">
  <sodipodi:namedview
     id="namedview7"
     pagecolor="#ffffff"
     bordercolor="#666666"
     borderopacity="1.0"
     inkscape:pageshadow="2"
     inkscape:pageopacity="0.0"
     inkscape:pagecheckerboard="0"
     inkscape:document-units="mm"
     showgrid="false"
     inkscape:zoom="0.73228114"
     inkscape:cx="513.46399"
     inkscape:cy="561.25984"
     inkscape:window-width="1853"
     inkscape:window-height="1025"
     inkscape:window-x="67"
     inkscape:window-y="27"
     inkscape:window-maximized="1"
     inkscape:current-layer="layer1" />
  <defs
     id="defs2" />
  <g
     inkscape:label="Ebene 1"
     inkscape:groupmode="layer"
     id="layer1">
    <g
       id="g2171"
       transform="matrix(0.4160739,0,0,0.4160739,1.3850744,52.645099)"
       style="fill:#ffffff">
      <g
         id="g2107"
         style="fill:#ffffff">
	<g
   id="g2105"
   style="fill:#ffffff">
		<path
   d="M 488.04,20.024 H 476.116 261.708 V 11.708 C 261.708,5.244 256.468,0 250,0 243.532,0 238.292,5.244 238.292,11.708 v 8.316 H 23.912 11.964 c -6.468,0 -11.708,5.244 -11.708,11.708 0,6.46 5.24,11.704 11.708,11.704 v 23.436 c 0,6.464 5.484,11.684 11.948,11.684 h 3.66 v 2.036 161.304 11.036 25.7 96.108 c 0,6.464 4.216,12.096 10.68,12.096 h 200.04 v 89.752 h -101.44 c -6.468,0 -11.708,5.248 -11.708,11.708 0,6.464 5.24,11.708 11.708,11.708 h 226.332 c 6.468,0 11.708,-5.244 11.708,-11.708 0,-6.46 -5.24,-11.708 -11.708,-11.708 H 261.708 V 386.84 h 200.068 c 6.468,0 14.56,-5.632 14.56,-12.096 V 271.016 271.012 259.98 259.976 78.556 h -0.22 c 6.468,0 11.924,-5.22 11.924,-11.684 V 43.436 c 6.464,0 11.708,-5.244 11.708,-11.704 0,-6.464 -5.244,-11.708 -11.708,-11.708 z M 452.916,247.6 392.748,188.852 315.468,265.42 200.044,150.352 l -74.18,74.672 -2.336,-2.084 h 1.6 v -1.352 L 92.02,189.076 50.984,229.516 V 78.196 l 401.932,0.164 z"
   id="path2103"
   style="fill:#ffffff" />

	</g>

</g>
      <g
         id="g2113"
         style="fill:#ffffff">
	<g
   id="g2111"
   style="fill:#ffffff">
		<circle
   cx="308.64001"
   cy="144.836"
   r="27.436001"
   id="circle2109"
   style="fill:#ffffff" />

	</g>

</g>
      <g
         id="g2115"
         style="fill:#ffffff">
</g>
      <g
         id="g2117"
         style="fill:#ffffff">
</g>
      <g
         id="g2119"
         style="fill:#ffffff">
</g>
      <g
         id="g2121"
         style="fill:#ffffff">
</g>
      <g
         id="g2123"
         style="fill:#ffffff">
</g>
      <g
         id="g2125"
         style="fill:#ffffff">
</g>
      <g
         id="g2127"
         style="fill:#ffffff">
</g>
      <g
         id="g2129"
         style="fill:#ffffff">
</g>
      <g
         id="g2131"
         style="fill:#ffffff">
</g>
      <g
         id="g2133"
         style="fill:#ffffff">
</g>
      <g
         id="g2135"
         style="fill:#ffffff">
</g>
      <g
         id="g2137"
         style="fill:#ffffff">
</g>
      <g
         id="g2139"
         style="fill:#ffffff">
</g>
      <g
         id="g2141"
         style="fill:#ffffff">
</g>
      <g
         id="g2143"
         style="fill:#ffffff">
</g>
    </g>
  </g>
</svg>
