<?xml version="1.0" encoding="UTF-8" standalone="no"?>
<!-- Created with Inkscape (http://www.inkscape.org/) -->

<svg
   width="210mm"
   height="297mm"
   viewBox="0 0 210 297"
   version="1.1"
   id="svg5"
   inkscape:version="1.1.2 (08b2f3d93c, 2022-04-05)"
   sodipodi:docname="bank_advisor.svg"
   xmlns:inkscape="http://www.inkscape.org/namespaces/inkscape"
   xmlns:sodipodi="http://sodipodi.sourceforge.net/DTD/sodipodi-0.dtd"
   xmlns="http://www.w3.org/2000/svg"
   xmlns:svg="http://www.w3.org/2000/svg">
  <sodipodi:namedview
     id="namedview7"
     pagecolor="#ffffff"
     bordercolor="#666666"
     borderopacity="1.0"
     inkscape:pageshadow="2"
     inkscape:pageopacity="0.0"
     inkscape:pagecheckerboard="0"
     inkscape:document-units="mm"
     showgrid="false"
     inkscape:zoom="0.73228114"
     inkscape:cx="513.46399"
     inkscape:cy="561.25984"
     inkscape:window-width="1853"
     inkscape:window-height="1025"
     inkscape:window-x="67"
     inkscape:window-y="27"
     inkscape:window-maximized="1"
     inkscape:current-layer="layer1" />
  <defs
     id="defs2" />
  <g
     inkscape:label="Ebene 1"
     inkscape:groupmode="layer"
     id="layer1">
    <g
       id="g1467"
       transform="matrix(0.40282868,0,0,0.40282868,2.4965751,54.398595)"
       style="fill:#ffffff">
      <g
         id="g1406"
         style="fill:#ffffff">
	<g
   id="g1404"
   style="fill:#ffffff">
		<g
   id="g1402"
   style="fill:#ffffff">
			<path
   d="m 76.802,409.602 c -4.71,0 -8.533,3.823 -8.533,8.533 0,4.71 3.823,8.533 8.533,8.533 h 85.333 c 4.71,0 8.533,-3.823 8.533,-8.533 0,-4.71 -3.823,-8.533 -8.533,-8.533 h -8.533 v -204.8 h 8.533 c 4.71,0 8.533,-3.823 8.533,-8.533 0,-4.71 -3.823,-8.533 -8.533,-8.533 H 76.802 c -4.71,0 -8.533,3.823 -8.533,8.533 0,4.71 3.823,8.533 8.533,8.533 h 8.533 v 204.8 z m 25.6,-204.8 h 34.133 v 204.8 h -34.133 z"
   id="path1390"
   style="fill:#ffffff" />

			<path
   d="m 8.535,170.668 h 494.933 c 3.814,0 7.159,-2.526 8.209,-6.195 1.041,-3.661 -0.469,-7.578 -3.712,-9.591 L 260.499,1.282 c -2.756,-1.707 -6.238,-1.707 -8.994,0 L 4.038,154.882 c -3.243,2.014 -4.753,5.931 -3.712,9.591 1.049,3.669 4.395,6.195 8.209,6.195 z M 256.002,18.579 473.542,153.602 H 38.461 Z"
   id="path1392"
   style="fill:#ffffff" />

			<path
   d="m 34.135,452.268 c 0,4.71 3.823,8.533 8.533,8.533 h 426.667 c 4.71,0 8.533,-3.823 8.533,-8.533 0,-4.71 -3.823,-8.533 -8.533,-8.533 H 42.668 c -4.71,0 -8.533,3.823 -8.533,8.533 z"
   id="path1394"
   style="fill:#ffffff" />

			<path
   d="M 503.468,477.868 H 8.535 c -4.71,0 -8.533,3.823 -8.533,8.533 v 17.067 c 0,4.71 3.823,8.533 8.533,8.533 4.71,0 8.533,-3.823 8.533,-8.533 v -8.533 h 477.867 v 8.533 c 0,4.71 3.823,8.533 8.533,8.533 4.71,0 8.533,-3.823 8.533,-8.533 v -17.067 c 10e-4,-4.71 -3.822,-8.533 -8.533,-8.533 z"
   id="path1396"
   style="fill:#ffffff" />

			<path
   d="m 213.335,409.602 c -4.71,0 -8.533,3.823 -8.533,8.533 0,4.71 3.823,8.533 8.533,8.533 h 85.333 c 4.71,0 8.533,-3.823 8.533,-8.533 0,-4.71 -3.823,-8.533 -8.533,-8.533 h -8.533 v -204.8 h 8.533 c 4.71,0 8.533,-3.823 8.533,-8.533 0,-4.71 -3.823,-8.533 -8.533,-8.533 h -85.333 c -4.71,0 -8.533,3.823 -8.533,8.533 0,4.71 3.823,8.533 8.533,8.533 h 8.533 v 204.8 z m 25.6,-204.8 h 34.133 v 204.8 h -34.133 z"
   id="path1398"
   style="fill:#ffffff" />

			<path
   d="m 349.868,409.602 c -4.71,0 -8.533,3.823 -8.533,8.533 0,4.71 3.823,8.533 8.533,8.533 h 85.333 c 4.71,0 8.533,-3.823 8.533,-8.533 0,-4.71 -3.823,-8.533 -8.533,-8.533 h -8.533 v -204.8 h 8.533 c 4.71,0 8.533,-3.823 8.533,-8.533 0,-4.71 -3.823,-8.533 -8.533,-8.533 h -85.333 c -4.71,0 -8.533,3.823 -8.533,8.533 0,4.71 3.823,8.533 8.533,8.533 h 8.533 v 204.8 z m 25.6,-204.8 h 34.133 v 204.8 h -34.133 z"
   id="path1400"
   style="fill:#ffffff" />

		</g>

	</g>

</g>
      <g
         id="g1408"
         style="fill:#ffffff">
</g>
      <g
         id="g1410"
         style="fill:#ffffff">
</g>
      <g
         id="g1412"
         style="fill:#ffffff">
</g>
      <g
         id="g1414"
         style="fill:#ffffff">
</g>
      <g
         id="g1416"
         style="fill:#ffffff">
</g>
      <g
         id="g1418"
         style="fill:#ffffff">
</g>
      <g
         id="g1420"
         style="fill:#ffffff">
</g>
      <g
         id="g1422"
         style="fill:#ffffff">
</g>
      <g
         id="g1424"
         style="fill:#ffffff">
</g>
      <g
         id="g1426"
         style="fill:#ffffff">
</g>
      <g
         id="g1428"
         style="fill:#ffffff">
</g>
      <g
         id="g1430"
         style="fill:#ffffff">
</g>
      <g
         id="g1432"
         style="fill:#ffffff">
</g>
      <g
         id="g1434"
         style="fill:#ffffff">
</g>
      <g
         id="g1436"
         style="fill:#ffffff">
</g>
    </g>
  </g>
</svg>
