<?xml version="1.0" encoding="UTF-8" standalone="no"?>

<svg
   id="svg3416"
   viewBox="0 0 177.91 187.84"
   version="1.1"
   xmlns="http://www.w3.org/2000/svg">
  <defs
     id="defs886" />
  <g
     id="layer1"
     transform="translate(76.364 79.336)">
    <path
       id="path3237"
       style="fill:#ffffff;fill-opacity:1;fill-rule:evenodd;stroke-width:0.965445"
       d="m -1.3535007,84.436155 c -0.2421624,-0.06396 -0.3195847,-0.653023 -0.3119911,-1.717413 0.00761,-1.064334 0.09753,-2.607297 0.094847,-4.587381 -0.00264,-1.980182 -0.1002354,-4.402036 -0.52657,-7.173644 -0.426343,-2.771608 -1.1832211,-5.897615 -2.5339555,-9.165479 -1.2104641,-2.986712 -2.9434368,-6.084765 -5.160164,-9.323726 -2.2167277,-3.238959 -4.9212417,-6.618069 -7.8238587,-10.271884 -2.373128,-2.924645 -4.905798,-6.080122 -7.316698,-9.60952 -2.410896,-3.529018 -4.700119,-7.43186 -6.452372,-11.898898 -1e-6,-6e-6 -4e-6,-6e-6 -4e-6,-1e-5 -2.199219,-5.768364 -3.180692,-12.2220276 -2.640086,-18.8201012 0.540637,-6.5976045 2.604576,-13.3373428 6.424143,-19.4426698 3.39493,-5.380707 8.09554,-10.108901 13.738476,-13.72112 5.6426431,-3.612404 12.225643,-6.107221 19.2439037,-6.988671 0.3097853,-0.0389 0.6200071,-0.07462 0.9305991,-0.107111 7.2258072,-0.725828 14.4201402,0.332128 20.8885462,2.772554 6.469095,2.440426 12.210887,6.261871 16.705133,11.061228 4.973472,5.361564 8.221246,11.746337 9.810806,18.2325983 1.589559,6.48559749 1.521885,13.0691731 0.0043,19.0911127 -0.920173,3.488271 -2.203547,6.640907 -3.570214,9.56119 -1.366663,2.920763 -2.816844,5.609647 -4.145837,8.15042 -4e-6,4e-6 -4e-6,6e-6 -4e-6,1.1e-5 -7.273755,14.061301 -11.932562,26.216048 -15.071352,34.714043 -1.569199,4.249092 -2.760286,7.591813 -3.671035,9.848314 -0.910723,2.256117 -1.544117,3.425823 -1.917998,3.348121 -0.373852,-0.07771 -0.468272,-1.399496 -0.248705,-3.832816 0.21957,-2.433317 0.756033,-5.978351 1.7254,-10.471828 0.969395,-4.493095 2.374507,-9.934542 4.370113,-16.123257 1.995605,-6.188812 4.584149,-13.125083 7.92065,-20.564618 0,-3e-6 0,-6e-6 4e-6,-6e-6 1.195314,-2.69713 2.475029,-5.397953 3.617427,-8.126637 1.142396,-2.728684 2.147476,-5.485037 2.718483,-8.314826 1.030787,-4.7768066 0.87242,-10.02740821 -0.548937,-15.158613 -1.422341,-5.1319605 -4.107675,-10.143961 -8.02354,-14.183538 -3.505389,-3.659789 -8.074394,-6.586421 -13.19354,-8.461894 -5.118854,-1.875474 -10.785597,-2.69893 -16.3313513,-2.119573 -0.2391787,0.0237 -0.4783222,0.04999 -0.7173696,0.0789 -5.4155162,0.654862 -10.6183745,2.621605 -15.1155664,5.451587 -4.4972927,2.82998 -8.2874497,6.521888 -10.9960937,10.684086 -3.096101,4.7076329 -4.865666,10.0908965 -5.450638,15.4191985 -0.584959,5.3279249 0.01484,10.5988055 1.614053,15.3083315 l 4e-6,1e-5 c 1.218432,3.727254 3.083312,7.190792 5.150035,10.504042 2.066722,3.313443 4.335287,6.476597 6.49398,9.552666 2.7243831,3.796617 5.3078119,7.547562 7.4080769,11.245061 2.1001648,3.697785 3.72080669,7.340324 4.78205359,10.843283 1.14653001,3.866454 1.55965981,7.445033 1.58424901,10.539105 0.024639,3.09379 -0.3372376,5.70753 -0.8045939,7.778774 -0.46735651,2.071246 -1.03842861,3.604732 -1.52444491,4.601976 -0.4860532,0.99715 -0.88552069,1.46147 -1.12764279,1.397508 z"/>
    <path
       id="path3267"
       style="fill:#ffffff;fill-opacity:1;fill-rule:evenodd;stroke-width:0.965445"
       d="m -1.7048083,79.365596 c 0.2228147,-2.606824 7.0924295,-4.191194 15.3339413,-3.537356 8.241511,0.653837 14.749657,3.299889 14.526372,5.906428 -0.222825,2.606538 -7.092427,4.191289 -15.333942,3.537453 C 4.5800512,84.618283 -1.9280943,81.972229 -1.7048083,79.365692 Z" />
    <path
       id="path3273"
       style="fill:#ffffff;fill-opacity:1;fill-rule:evenodd;stroke-width:0.965445"
       d="m -1.2129883,92.221566 c 0.39785289,-2.583142 7.0946893,-3.77331 14.9483543,-2.652312 7.853663,1.120904 13.90471,4.130267 13.507321,6.71738 -0.397852,2.58711 -7.094689,3.777086 -14.948353,2.65628 -7.8536622,-1.12081 -13.9047107,-4.130262 -13.5073223,-6.71737 z"/>
    <path
       id="path3303"
       style="fill:#ffffff;fill-opacity:1;fill-rule:evenodd;stroke-width:0.965445"
       d="m -54.422788,-53.32461 c 1.70917,-2.03192 9.551031,1.357708 17.503845,7.566132 7.953013,6.208429 13.020421,12.896716 11.310858,14.928349 -1.70917,2.03192 -9.551032,-1.357709 -17.503846,-7.566133 -7.953011,-6.208429 -13.020421,-12.896714 -11.310857,-14.928348 z"/>
    <path
       id="path3309"
       style="fill:#ffffff;fill-opacity:1;fill-rule:evenodd;stroke-width:0.965445"
       d="m 3.7038489,-78.630024 c 2.7056919,-0.214157 5.4577157,6.124277 6.1433127,14.147533 0.6855954,8.024199 -0.953541,14.711348 -3.6592357,14.925504 -2.7056929,0.214154 -5.45810981,-6.123334 -6.14370601,-14.147533 -0.6855668,-8.0242 0.9539315,-14.710402 3.65962901,-14.925504 z"/>
    <path
       id="path3315"
       style="fill:#ffffff;fill-opacity:1;fill-rule:evenodd;stroke-width:0.965445"
       d="m 73.63906,-62.980562 c 2.175909,1.564095 -0.903243,9.088818 -6.873074,16.796051 -5.9698,7.707512 -12.580735,12.693925 -14.756543,11.129455 -2.175905,-1.564096 0.903245,-9.088821 6.873076,-16.796051 5.969801,-7.707514 12.580733,-12.69393 14.756541,-11.129455 z"/>
    <path
       id="path3321"
       style="fill:#ffffff;fill-opacity:1;fill-rule:evenodd;stroke-width:0.965445"
       d="m 63.998423,-4.3082624 c -1.177417,-2.3564677 5.687395,-7.8958966 15.323117,-12.3641676 9.635917,-4.468837 18.411757,-6.183219 19.590136,-3.826751 1.177624,2.356472 -5.687101,7.895896 -15.323112,12.3651163 -9.635918,4.4688391 -18.411743,6.1832174 -19.590141,3.8267499 z"/>
    <path
       id="path3333"
       style="fill:#ffffff;fill-opacity:1;fill-rule:evenodd;stroke-width:0.965445"
       d="m -75.798235,-13.166656 c 1.2746,-2.309184 9.882616,-0.303787 19.213409,4.4763265 9.330992,4.7800275 15.869039,10.5334186 14.595228,12.8426998 -1.274601,2.3091831 -9.882617,0.3037889 -19.213409,-4.47632641 C -70.533999,-5.1039849 -77.072046,-10.857374 -75.798235,-13.166656 Z"/>
    <path
       id="path3339"
       style="fill:#ffffff;fill-opacity:1;stroke-width:0.965445"/>
  </g>
</svg>
