<?xml version="1.0" encoding="UTF-8" standalone="no"?>

<svg
   id="svg3416"
   viewBox="0 0 177.91 187.84"
   version="1.1"
   xmlns="http://www.w3.org/2000/svg">
  <defs
     id="defs16" />
  <g
     id="layer1"
     transform="translate(76.364 79.336)">
    <path
       id="path3237"
       style="fill:#212121;fill-rule:evenodd;stroke-width:0.965446;fill-opacity:1"
       d="m -1.759906,84.151134 c -0.2421619,-0.06396 -0.3195841,-0.653023 -0.3119904,-1.717414 0.00759,-1.064334 0.097538,-2.607296 0.094842,-4.587382 -0.0027,-1.980181 -0.1002328,-4.402033 -0.5265712,-7.173642 -0.4263383,-2.771608 -1.1832185,-5.897616 -2.5339508,-9.165478 -1.2104653,-2.986711 -2.9434394,-6.084765 -5.1601666,-9.323725 -2.216727,-3.23896 -4.921241,-6.61807 -7.823859,-10.271885 -2.373126,-2.924645 -4.905798,-6.080122 -7.316696,-9.609519 -2.410898,-3.529018 -4.700119,-7.43186 -6.452373,-11.898898 -1e-6,-4e-6 -3e-6,-7e-6 -4e-6,-10e-6 -2.199218,-5.768365 -3.180693,-12.2220267 -2.640085,-18.8201018 0.540637,-6.5976013 2.604576,-13.3373412 6.424142,-19.4426692 3.39493,-5.380706 8.095541,-10.1089 13.738477,-13.721116 5.6426414,-3.612406 12.2256412,-6.107223 19.243901,-6.988672 0.309787,-0.03891 0.6200069,-0.07462 0.9306006,-0.107116 7.2258074,-0.725826 14.4201384,0.332131 20.8885444,2.772556 6.469095,2.440426 12.210887,6.26187 16.705131,11.061228 4.973472,5.361564 8.221249,11.746337 9.810809,18.2325965 1.58956,6.48559614 1.521885,13.0691728 0.0041,19.0911125 -0.920174,3.488272 -2.203546,6.640907 -3.570214,9.561192 -1.366667,2.920759 -2.816845,5.609643 -4.145839,8.150419 -10e-7,1e-6 -3e-6,4e-6 -4e-6,7e-6 -7.27371,14.061301 -11.932517,26.216049 -15.071307,34.714044 -1.569198,4.249092 -2.760286,7.591813 -3.671036,9.848312 -0.910722,2.256119 -1.544116,3.425825 -1.917997,3.348122 -0.373851,-0.07769 -0.468271,-1.399497 -0.248703,-3.832815 0.219568,-2.433319 0.756034,-5.978351 1.7254,-10.471827 0.969395,-4.493097 2.374503,-9.934542 4.370109,-16.123258 1.995605,-6.188811 4.584148,-13.125081 7.920649,-20.564617 2e-6,-3e-6 3e-6,-6e-6 4e-6,-9e-6 1.195318,-2.697128 2.475031,-5.397951 3.617429,-8.126634 1.142397,-2.728682 2.147479,-5.485035 2.718481,-8.314825 1.030853,-4.7768054 0.872487,-10.02740636 -0.54887,-15.1586109 -1.422341,-5.1319628 -4.107674,-10.1439601 -8.023538,-14.1835401 -3.505392,-3.659786 -8.074393,-6.58642 -13.193542,-8.461892 -5.118854,-1.875472 -10.785595,-2.698928 -16.3313481,-2.119571 -0.2391815,0.02369 -0.4783237,0.04999 -0.7173675,0.0789 -5.4155194,0.654861 -10.6183762,2.621605 -15.1155708,5.451585 -4.4972926,2.82998 -8.2874476,6.521889 -10.9960926,10.684087 -3.096101,4.707632 -4.865666,10.0908957 -5.450636,15.4191991 -0.58496,5.3279242 0.01485,10.5988039 1.614053,15.3083299 l 2e-6,9e-6 c 1.218433,3.727254 3.083313,7.190793 5.150036,10.504044 2.066722,3.313441 4.335288,6.476594 6.49398,9.552664 2.7243832,3.796617 5.307811,7.547561 7.4080757,11.245061 2.1001663,3.697783 3.7208088,7.340323 4.7820563,10.843282 1.1465289,3.866455 1.559657,7.445032 1.5842479,10.539105 0.024622,3.09379 -0.3372404,5.70753 -0.8045965,7.778774 -0.4673561,2.071244 -1.038427,3.60473 -1.5244427,4.601975 -0.4860551,0.99715 -0.8855205,1.461469 -1.1276431,1.397507 z"/>
    <path
       id="path3267"
       style="fill:#212121;fill-rule:evenodd;stroke-width:0.965446;fill-opacity:1"
       d="m -2.1112125,79.080575 c 0.2228138,-2.606822 7.0924262,-4.191194 15.3339385,-3.537357 8.241513,0.653838 14.749657,3.299891 14.526372,5.906429 -0.222824,2.606538 -7.092427,4.191289 -15.333939,3.537452 C 4.1736465,84.333261 -2.3344984,81.687208 -2.1112125,79.08067 Z"/>
    <path
       id="path3273"
       style="fill:#212121;fill-rule:evenodd;stroke-width:0.965446;fill-opacity:1"
       d="m -1.6193933,91.93654 c 0.3978522,-2.583132 7.0946885,-3.773306 14.9483523,-2.652306 7.853664,1.120905 13.904712,4.130264 13.507322,6.717376 -0.397852,2.587112 -7.094688,3.777102 -14.948352,2.656292 C 4.034265,97.537092 -2.0167832,94.527633 -1.6193933,91.94052 Z"/>
    <path
       id="path3303"
       style="fill:#212121;fill-rule:evenodd;stroke-width:0.965446;fill-opacity:1"
       d="m -54.829193,-53.609626 c 1.70917,-2.031919 9.55103,1.357709 17.503845,7.566134 7.953011,6.208426 13.020421,12.896712 11.310858,14.928347 -1.709171,2.031919 -9.551031,-1.357708 -17.503845,-7.566134 -7.953012,-6.208426 -13.020421,-12.896712 -11.310858,-14.928347 z"/>
    <path
       id="path3309"
       style="fill:#212121;fill-rule:evenodd;stroke-width:0.965446;fill-opacity:1"
       d="m 3.2974412,-78.91504 c 2.705694,-0.214155 5.4577178,6.12428 6.1433138,14.147532 0.685596,8.024199 -0.953539,14.711348 -3.6592335,14.925504 -2.7056941,0.214155 -5.4581109,-6.123332 -6.1437069,-14.147532 -0.6855664,-8.024199 0.9539325,-14.7104 3.6596266,-14.925504 z"/>
    <path
       id="path3315"
       style="fill:#212121;fill-rule:evenodd;stroke-width:0.965446;fill-opacity:1"
       d="m 73.232654,-63.265576 c 2.175906,1.564093 -0.903246,9.088817 -6.873075,16.796048 -5.9698,7.707514 -12.580735,12.693927 -14.756543,11.129454 -2.175906,-1.564093 0.903246,-9.088818 6.873075,-16.796048 5.9698,-7.707514 12.580735,-12.693927 14.756543,-11.129454 z"/>
    <path
       id="path3321"
       style="fill:#212121;fill-rule:evenodd;stroke-width:0.965446;fill-opacity:1"
       d="m 63.592014,-4.5932801 c -1.177415,-2.3564689 5.687397,-7.8958959 15.323119,-12.3641659 9.635918,-4.468838 18.411743,-6.18322 19.590137,-3.826751 1.17762,2.356469 -5.687097,7.895896 -15.323114,12.3651136 -9.635918,4.4688385 -18.411743,6.1832199 -19.590142,3.8267509 z"/>
    <path
       id="path3333"
       style="fill:#212121;fill-rule:evenodd;stroke-width:0.965446;fill-opacity:1"
       d="m -76.204638,-13.451672 c 1.274598,-2.309185 9.882614,-0.303789 19.213408,4.4763243 9.33099,4.7800274 15.869038,10.53342 14.595226,12.842699 -1.274599,2.3091841 -9.882615,0.3037881 -19.213408,-4.47632446 C -70.940403,-5.3890006 -77.47845,-11.142394 -76.204638,-13.451672 Z"/>
    <path
       id="path3339"
       style="fill:#212121;stroke-width:0.965446;fill-opacity:1"
       d="M 23.893353,65.582143 C 20.877813,62.062412 6.9865769,60.491875 2.7156191,63.187771 1.5370236,63.931686 1.5367285,63.931288 1.5367285,61.843708 c 0,-6.537429 -4.4943421,-16.180114 -13.2023945,-28.325386 -9.494864,-13.242582 -11.307906,-16.474815 -13.127637,-23.408337 -2.372733,-9.0367002 -0.161789,-21.009037 5.235021,-28.349076 13.4178114,-18.248705 39.110446,-20.615787 55.211622,-5.087994 7.758054,7.481514 11.558735,19.4654114 9.412042,29.6738077 -0.927718,4.4106563 -1.966195,7.1689983 -6.265579,16.6425383 -6.724447,14.81653 -11.851859,30.402505 -14.000125,42.55062 -0.155356,0.878824 -0.188416,0.880359 -0.906463,0.04226 z" />
  </g>
</svg>
