<?xml version="1.0" encoding="UTF-8" standalone="no"?>
<!-- Created with Inkscape (http://www.inkscape.org/) -->

<svg
   width="210mm"
   height="297mm"
   viewBox="0 0 210 297"
   version="1.1"
   id="svg5"
   inkscape:version="1.1.2 (08b2f3d93c, 2022-04-05)"
   sodipodi:docname="school.svg"
   xmlns:inkscape="http://www.inkscape.org/namespaces/inkscape"
   xmlns:sodipodi="http://sodipodi.sourceforge.net/DTD/sodipodi-0.dtd"
   xmlns="http://www.w3.org/2000/svg"
   xmlns:svg="http://www.w3.org/2000/svg">
  <sodipodi:namedview
     id="namedview7"
     pagecolor="#ffffff"
     bordercolor="#666666"
     borderopacity="1.0"
     inkscape:pageshadow="2"
     inkscape:pageopacity="0.0"
     inkscape:pagecheckerboard="0"
     inkscape:document-units="mm"
     showgrid="false"
     inkscape:zoom="0.73228114"
     inkscape:cx="513.46399"
     inkscape:cy="561.25984"
     inkscape:window-width="1853"
     inkscape:window-height="1025"
     inkscape:window-x="67"
     inkscape:window-y="27"
     inkscape:window-maximized="1"
     inkscape:current-layer="layer1" />
  <defs
     id="defs2" />
  <g
     inkscape:label="Ebene 1"
     inkscape:groupmode="layer"
     id="layer1">
    <g
       id="g2459"
       transform="matrix(0.68578721,0,0,0.68578721,1.9580559,20.022209)"
       style="fill:#ffffff">
      <g
         id="g2398"
         style="fill:#ffffff">
	<g
   id="g2396"
   style="fill:#ffffff">
		<g
   id="g2394"
   style="fill:#ffffff">
			<path
   d="m 128.14,115.176 c 0,12.092 9.838,21.93 21.93,21.93 12.092,0 21.93,-9.838 21.93,-21.93 0,-12.092 -9.838,-21.93 -21.93,-21.93 -12.092,0 -21.93,9.837 -21.93,21.93 z m 30.96,0 c 0,4.979 -4.051,9.03 -9.03,9.03 -4.979,0 -9.03,-4.051 -9.03,-9.03 0,-4.979 4.051,-9.03 9.03,-9.03 4.979,0 9.03,4.05 9.03,9.03 z"
   id="path2382"
   style="fill:#ffffff" />

			<path
   d="M 293.69,90.379 H 206.151 L 154.737,36.477 c -2.541,-2.663 -6.795,-2.662 -9.334,0 L 93.989,90.379 H 6.45 c -3.563,0 -6.45,2.888 -6.45,6.45 0,8.219 0,154.422 0,162.381 0,3.562 2.887,6.45 6.45,6.45 7.821,0 279.408,0 287.24,0 3.563,0 6.45,-2.888 6.45,-6.45 0,-8.005 0,-154.233 0,-162.381 0,-3.562 -2.887,-6.45 -6.45,-6.45 z M 90.3,252.76 H 12.9 V 143.749 h 77.4 z m 0,-121.91 H 12.9 v -27.571 h 77.4 z m 75.106,121.91 h -30.673 v -50.868 h 30.673 z m 31.534,0 h -18.634 v -57.318 c 0,-3.562 -2.887,-6.45 -6.45,-6.45 h -43.573 c -3.563,0 -6.45,2.888 -6.45,6.45 V 252.76 H 103.2 c 0,-2.552 0,-150.834 0,-153.348 l 46.87,-49.138 46.87,49.138 c 0,2.514 0,150.796 0,153.348 z m 90.3,0 h -77.4 V 143.749 h 77.4 z m 0,-121.911 h -77.4 v -27.571 h 77.4 z"
   id="path2384"
   style="fill:#ffffff" />

			<path
   d="m 229.62,189.615 h 37.84 c 3.563,0 6.45,-2.888 6.45,-6.45 0,-3.562 -2.887,-6.45 -6.45,-6.45 h -37.84 c -3.563,0 -6.45,2.888 -6.45,6.45 0,3.562 2.887,6.45 6.45,6.45 z"
   id="path2386"
   style="fill:#ffffff" />

			<path
   d="m 229.62,219.794 h 37.84 c 3.563,0 6.45,-2.888 6.45,-6.45 0,-3.562 -2.887,-6.45 -6.45,-6.45 h -37.84 c -3.563,0 -6.45,2.888 -6.45,6.45 0,3.563 2.887,6.45 6.45,6.45 z"
   id="path2388"
   style="fill:#ffffff" />

			<path
   d="m 32.68,189.615 h 37.84 c 3.563,0 6.45,-2.888 6.45,-6.45 0,-3.562 -2.887,-6.45 -6.45,-6.45 H 32.68 c -3.563,0 -6.45,2.888 -6.45,6.45 0,3.562 2.887,6.45 6.45,6.45 z"
   id="path2390"
   style="fill:#ffffff" />

			<path
   d="m 32.68,219.794 h 37.84 c 3.563,0 6.45,-2.888 6.45,-6.45 0,-3.562 -2.887,-6.45 -6.45,-6.45 H 32.68 c -3.563,0 -6.45,2.888 -6.45,6.45 0,3.563 2.887,6.45 6.45,6.45 z"
   id="path2392"
   style="fill:#ffffff" />

		</g>

	</g>

</g>
      <g
         id="g2400"
         style="fill:#ffffff">
</g>
      <g
         id="g2402"
         style="fill:#ffffff">
</g>
      <g
         id="g2404"
         style="fill:#ffffff">
</g>
      <g
         id="g2406"
         style="fill:#ffffff">
</g>
      <g
         id="g2408"
         style="fill:#ffffff">
</g>
      <g
         id="g2410"
         style="fill:#ffffff">
</g>
      <g
         id="g2412"
         style="fill:#ffffff">
</g>
      <g
         id="g2414"
         style="fill:#ffffff">
</g>
      <g
         id="g2416"
         style="fill:#ffffff">
</g>
      <g
         id="g2418"
         style="fill:#ffffff">
</g>
      <g
         id="g2420"
         style="fill:#ffffff">
</g>
      <g
         id="g2422"
         style="fill:#ffffff">
</g>
      <g
         id="g2424"
         style="fill:#ffffff">
</g>
      <g
         id="g2426"
         style="fill:#ffffff">
</g>
      <g
         id="g2428"
         style="fill:#ffffff">
</g>
    </g>
  </g>
</svg>
